<svg version="1.1" xmlns="http://www.w3.org/2000/svg" xmlns:xlink="http://www.w3.org/1999/xlink" width="62.66472" height="62.66474" viewBox="0,0,62.66472,62.66474"><g transform="translate(-208.66764,-148.66763)"><g data-paper-data="{&quot;isPaintingLayer&quot;:true}" fill="#5896ff" fill-rule="nonzero" stroke="none" stroke-width="0" stroke-linecap="butt" stroke-linejoin="miter" stroke-miterlimit="10" stroke-dasharray="" stroke-dashoffset="0" style="mix-blend-mode: normal"><g><g><path d="M208.66764,178.56273c0,0 0,-18.12335 0,-23.4949c0,-2.80355 4.2555,-6.4002 6.68679,-6.4002c5.20795,0 23.20831,0 23.20831,0v29.8951z"/><path d="M241.43726,178.56273v-29.8951c0,0 18.01642,0 23.39937,0c2.83618,0 6.49573,3.59666 6.49573,6.4002c0,5.37155 0,23.4949 0,23.4949z"/></g><g><path d="M208.66764,204.359c0,-5.43229 0,-22.92173 0,-22.92173h29.8951v29.8951c0,0 -18.23082,0 -23.59042,0c-2.77074,0 -6.30468,-3.9771 -6.30468,-6.97337z"/><path d="M241.43726,211.33235v-29.8951h29.8951c0,0 0,17.48945 0,22.92173c0,2.99627 -3.40912,6.97337 -6.11362,6.97337c-5.33404,0 -23.78148,0 -23.78148,0z"/></g></g></g></g></svg>